<?xml version="1.0" encoding="UTF-8" standalone="no"?>
<svg xmlns="http://www.w3.org/2000/svg" xmlns:xlink="http://www.w3.org/1999/xlink" fill="#a19d9d" height="63.6" preserveAspectRatio="xMidYMid meet" version="1" viewBox="-0.1 -0.5 56.3 63.6" width="56.3" zoomAndPan="magnify">
    <g data-name="36" id="change1_1">
        <path
            d="M21.878,18.12A9.159,9.159,0,0,0,31.1,9.38a9.073,9.073,0,1,0-18.14-.33A9.077,9.077,0,0,0,21.878,18.12Zm.3-15.09A6.041,6.041,0,1,1,16,9.07,6.022,6.022,0,0,1,22.178,3.03Zm33.25,17.68a1.451,1.451,0,0,0-1.23-.67h-8.45a1.5,1.5,0,0,0,0,3h5.7q-7.155,7.155-14.29,14.3V33.16l-.02.02V30.17a9.092,9.092,0,0,0-8.99-9.01q-6.15-.015-12.3.01a8.959,8.959,0,0,0-8.72,7.26,32.552,32.552,0,0,0-.21,4.2c-.01.15,0,.31,0,.52a.59.59,0,0,0-.08-.04v5.21a3.94,3.94,0,0,1,.07.77c.01.88.01,8.79.01,12.03h-.08v2.87l-6.4,6.4a1.5,1.5,0,0,0,2.13,2.12l8.39-8.39,3-3,8.26-8.26,5.12,5.12a1.349,1.349,0,0,0,.44.29,1.459,1.459,0,0,0,2.33.36l3.99-3.99q1.515-1.53,3.04-3.04,8-8.01,16-16v5.7a1.5,1.5,0,1,0,3,0V21.98A1.55,1.55,0,0,0,55.428,20.71ZM29.048,45.45q-2.685-2.685-5.36-5.37a1.488,1.488,0,0,0-2.43-.51L9.938,50.89c0-4.83-.01-17.06,0-20.61a6.032,6.032,0,0,1,6.11-6.1q5.6-.015,11.21,0a10.754,10.754,0,0,1,2.12.15,5.991,5.991,0,0,1,4.72,5.98c.01,1.79,0,5.89,0,10.09Z"
        />
    </g>
</svg>